<svg width="204" height="47" viewBox="0 0 204 47" fill="none" xmlns="http://www.w3.org/2000/svg">
<path d="M22.344 46.896C15.1333 46.896 9.62933 44.8907 5.832 40.88C2.07733 36.8693 0.2 31.1733 0.2 23.792C0.2 20.1227 0.776 16.8587 1.928 14C3.08 11.0987 4.65867 8.66667 6.664 6.704C8.66933 4.69867 11.0587 3.184 13.832 2.16C16.6053 1.136 19.6133 0.623997 22.856 0.623997C24.7333 0.623997 26.44 0.773331 27.976 1.072C29.512 1.328 30.856 1.648 32.008 2.032C33.16 2.37333 34.12 2.736 34.888 3.12C35.656 3.504 36.2107 3.80267 36.552 4.016L33.672 12.08C32.3067 11.3547 30.7067 10.736 28.872 10.224C27.08 9.712 25.032 9.456 22.728 9.456C21.192 9.456 19.6773 9.712 18.184 10.224C16.7333 10.736 15.432 11.568 14.28 12.72C13.1707 13.8293 12.2747 15.28 11.592 17.072C10.9093 18.864 10.568 21.04 10.568 23.6C10.568 25.648 10.7813 27.568 11.208 29.36C11.6773 31.1093 12.4027 32.624 13.384 33.904C14.408 35.184 15.7307 36.208 17.352 36.976C18.9733 37.7013 20.936 38.064 23.24 38.064C24.6907 38.064 25.992 37.9787 27.144 37.808C28.296 37.6373 29.32 37.4453 30.216 37.232C31.112 36.976 31.9013 36.6987 32.584 36.4C33.2667 36.1013 33.8853 35.824 34.44 35.568L37.192 43.568C35.784 44.4213 33.8 45.1893 31.24 45.872C28.68 46.5547 25.7147 46.896 22.344 46.896ZM75.1285 46C74.6592 44.464 74.1258 42.8853 73.5285 41.264C72.9738 39.6427 72.4192 38.0213 71.8645 36.4H54.5845C54.0298 38.0213 53.4538 39.6427 52.8565 41.264C52.3018 42.8853 51.7898 44.464 51.3205 46H40.9525C42.6165 41.2213 44.1952 36.8053 45.6885 32.752C47.1818 28.6987 48.6325 24.88 50.0405 21.296C51.4912 17.712 52.8992 14.32 54.2645 11.12C55.6725 7.87733 57.1232 4.72 58.6165 1.648H68.1525C69.6032 4.72 71.0325 7.87733 72.4405 11.12C73.8485 14.32 75.2565 17.712 76.6645 21.296C78.1152 24.88 79.5872 28.6987 81.0805 32.752C82.5738 36.8053 84.1525 41.2213 85.8165 46H75.1285ZM63.1605 11.696C62.9472 12.336 62.6272 13.2107 62.2005 14.32C61.7738 15.4293 61.2832 16.7093 60.7285 18.16C60.1738 19.6107 59.5552 21.2107 58.8725 22.96C58.2325 24.7093 57.5712 26.544 56.8885 28.464H69.4965C68.8138 26.544 68.1525 24.7093 67.5125 22.96C66.8725 21.2107 66.2538 19.6107 65.6565 18.16C65.1018 16.7093 64.6112 15.4293 64.1845 14.32C63.7578 13.2107 63.4165 12.336 63.1605 11.696ZM100.554 46C98.8047 42.288 97.0767 38.4267 95.37 34.416C93.6633 30.4053 92.042 26.4373 90.506 22.512C88.97 18.5867 87.5407 14.832 86.218 11.248C84.938 7.664 83.8287 4.464 82.89 1.648H93.898C94.7513 4.208 95.6687 6.98133 96.65 9.968C97.674 12.912 98.698 15.856 99.722 18.8C100.789 21.744 101.813 24.56 102.794 27.248C103.775 29.936 104.693 32.2613 105.546 34.224C106.357 32.2613 107.253 29.936 108.234 27.248C109.258 24.56 110.282 21.744 111.306 18.8C112.373 15.856 113.397 12.912 114.378 9.968C115.402 6.98133 116.341 4.208 117.194 1.648H127.818C126.837 4.464 125.706 7.664 124.426 11.248C123.146 14.832 121.738 18.5867 120.202 22.512C118.666 26.4373 117.045 30.4053 115.338 34.416C113.631 38.4267 111.903 42.288 110.154 46H100.554ZM159.066 46C158.597 44.464 158.063 42.8853 157.466 41.264C156.911 39.6427 156.357 38.0213 155.802 36.4H138.522C137.967 38.0213 137.391 39.6427 136.794 41.264C136.239 42.8853 135.727 44.464 135.258 46H124.89C126.554 41.2213 128.133 36.8053 129.626 32.752C131.119 28.6987 132.57 24.88 133.978 21.296C135.429 17.712 136.837 14.32 138.202 11.12C139.61 7.87733 141.061 4.72 142.554 1.648H152.09C153.541 4.72 154.97 7.87733 156.378 11.12C157.786 14.32 159.194 17.712 160.602 21.296C162.053 24.88 163.525 28.6987 165.018 32.752C166.511 36.8053 168.09 41.2213 169.754 46H159.066ZM147.098 11.696C146.885 12.336 146.565 13.2107 146.138 14.32C145.711 15.4293 145.221 16.7093 144.666 18.16C144.111 19.6107 143.493 21.2107 142.81 22.96C142.17 24.7093 141.509 26.544 140.826 28.464H153.434C152.751 26.544 152.09 24.7093 151.45 22.96C150.81 21.2107 150.191 19.6107 149.594 18.16C149.039 16.7093 148.549 15.4293 148.122 14.32C147.695 13.2107 147.354 12.336 147.098 11.696ZM202.119 13.296C202.119 14.9173 201.799 16.4747 201.159 17.968C200.519 19.4613 199.687 20.912 198.663 22.32C197.639 23.6853 196.487 25.008 195.207 26.288C193.927 27.568 192.668 28.784 191.431 29.936C190.791 30.5333 190.087 31.216 189.319 31.984C188.594 32.7093 187.89 33.456 187.207 34.224C186.524 34.992 185.906 35.7173 185.351 36.4C184.839 37.04 184.519 37.5733 184.391 38H203.463V46H173.895C173.81 45.5307 173.767 44.9333 173.767 44.208C173.767 43.4827 173.767 42.9707 173.767 42.672C173.767 40.624 174.087 38.7467 174.727 37.04C175.41 35.3333 176.284 33.7547 177.351 32.304C178.418 30.8107 179.612 29.424 180.935 28.144C182.3 26.864 183.644 25.584 184.967 24.304C185.991 23.3227 186.951 22.4053 187.847 21.552C188.743 20.656 189.532 19.8027 190.215 18.992C190.898 18.1387 191.431 17.3067 191.815 16.496C192.199 15.6427 192.391 14.7893 192.391 13.936C192.391 12.0587 191.858 10.736 190.791 9.968C189.724 9.2 188.402 8.816 186.823 8.816C185.671 8.816 184.583 9.008 183.559 9.392C182.578 9.73333 181.66 10.16 180.807 10.672C179.996 11.1413 179.292 11.632 178.695 12.144C178.098 12.6133 177.65 12.9973 177.351 13.296L172.615 6.64C174.492 4.89067 176.668 3.46133 179.143 2.352C181.66 1.2 184.348 0.623997 187.207 0.623997C189.81 0.623997 192.05 0.922663 193.927 1.52C195.804 2.11733 197.34 2.97066 198.535 4.08C199.772 5.14666 200.668 6.46933 201.223 8.048C201.82 9.584 202.119 11.3333 202.119 13.296Z" fill="#2D32A9"/>
</svg>
